<svg width="37" height="37" viewBox="0 0 37 37" fill="none" xmlns="http://www.w3.org/2000/svg">
<path d="M0.0605469 10.1406C0.41216 9.47362 0.792993 9.35288 1.48161 9.69563C2.46924 10.1874 3.45493 10.684 4.44354 11.1738C4.81463 11.3578 5.06495 11.6266 5.03378 12.0599C4.99287 12.6305 4.41432 12.9898 3.88446 12.7386C2.74878 12.2001 1.62674 11.6295 0.512482 11.0482C0.328396 10.9518 0.209569 10.7317 0.0605469 10.5691C0.0605469 10.4259 0.0605469 10.2828 0.0605469 10.1406Z" fill="#C5197D"/>
<path d="M18.5642 0.361816C19.0463 0.584802 19.1982 0.98014 19.1904 1.48746C19.1758 2.43977 19.1914 3.39209 19.1846 4.34343C19.1807 4.89944 18.9606 5.20811 18.5252 5.30841C18.0781 5.41065 17.6398 5.15066 17.5668 4.69593C17.5142 4.36972 17.52 4.03378 17.5171 3.70174C17.5103 2.96364 17.5268 2.22555 17.5113 1.48843C17.5005 0.981114 17.6544 0.585776 18.1366 0.36279C18.2788 0.361816 18.4219 0.361816 18.5642 0.361816Z" fill="#C5197D"/>
<path d="M6.69915 30.2729C6.69915 30.119 6.69915 29.9788 6.69915 29.8386C6.69915 26.2445 6.70207 22.6514 6.69818 19.0574C6.69623 17.4371 6.92512 15.8606 7.53776 14.3494C8.45917 12.0767 9.94159 10.2587 11.9899 8.91882C14.2817 7.41829 16.8122 6.81165 19.5326 7.08722C21.9666 7.33357 24.1211 8.27226 25.9668 9.88672C27.9089 11.5859 29.18 13.696 29.6991 16.2228C29.8774 17.0904 29.9602 17.9911 29.968 18.8772C29.9972 22.5297 29.9797 26.1832 29.9797 29.8367C29.9797 29.9769 29.9797 30.1181 29.9797 30.2807C30.7725 30.3294 31.4718 30.5485 32.0708 31.046C32.9056 31.7393 33.2864 32.6371 33.2981 33.7043C33.3068 34.4541 33.3078 35.2039 33.2981 35.9537C33.2893 36.6236 32.9737 36.9313 32.3017 36.9313C22.9941 36.9333 13.6856 36.9333 4.37811 36.9313C3.70508 36.9313 3.38756 36.6246 3.38171 35.9547C3.37392 35.1338 3.34762 34.31 3.40314 33.493C3.52489 31.6897 4.67031 30.5192 6.46247 30.3031C6.53162 30.2943 6.5998 30.2856 6.69915 30.2729ZM28.319 30.27C28.319 30.1064 28.319 29.9662 28.319 29.8259C28.319 26.2436 28.3248 22.6612 28.3131 19.0778C28.3112 18.4498 28.28 17.8149 28.1885 17.1936C27.7979 14.5684 26.5434 12.4282 24.4561 10.7952C22.4847 9.25281 20.2319 8.56827 17.7287 8.71239C15.5401 8.838 13.598 9.6092 11.9363 11.0231C9.51595 13.0825 8.36372 15.7428 8.36079 18.9084C8.35787 22.5638 8.36079 26.2183 8.36079 29.8717C8.36079 29.9993 8.36079 30.1259 8.36079 30.27C15.022 30.27 21.6383 30.27 28.319 30.27ZM5.05699 35.2526C13.9321 35.2526 22.7662 35.2526 31.6169 35.2526C31.6169 34.6021 31.6656 33.9702 31.6053 33.348C31.5215 32.4804 30.7696 31.9419 29.7508 31.9419C22.1477 31.9409 14.5437 31.9409 6.9407 31.9438C6.72837 31.9438 6.5102 31.9604 6.30371 32.0061C5.64334 32.1532 5.10374 32.7413 5.06478 33.4074C5.02972 34.0111 5.05699 34.6177 5.05699 35.2526Z" fill="#C5197D"/>
<path d="M32.5833 12.8112C32.142 12.819 31.8245 12.6116 31.7096 12.301C31.582 11.9573 31.6716 11.5979 31.9482 11.3681C32.0203 11.3078 32.1002 11.2523 32.1839 11.2094C33.2329 10.6826 34.279 10.15 35.3348 9.63586C35.9192 9.35153 36.4578 9.58814 36.5952 10.1597C36.6838 10.5268 36.5143 10.8735 36.113 11.0935C35.7809 11.2756 35.4371 11.4373 35.0972 11.6077C34.3969 11.9582 33.6985 12.3097 32.9962 12.6544C32.8394 12.7323 32.668 12.7801 32.5833 12.8112Z" fill="#C5197D"/>
<path d="M9.87247 6.16635C9.7663 6.10111 9.52864 6.0086 9.35917 5.84404C8.57315 5.08258 7.80272 4.30554 7.03423 3.52558C6.63197 3.11758 6.60275 2.6424 6.93781 2.28796C7.27481 1.93157 7.79103 1.94617 8.20206 2.35028C8.991 3.12537 9.7702 3.91118 10.5494 4.69796C10.8211 4.97255 10.94 5.3007 10.7734 5.67364C10.6293 5.99497 10.3682 6.16148 9.87247 6.16635Z" fill="#C5197D"/>
<path d="M26.7998 6.16508C26.3518 6.16216 26.1034 6.01804 25.9495 5.73371C25.8025 5.46301 25.8054 5.1855 25.9749 4.92161C26.0323 4.83203 26.0966 4.74439 26.1716 4.66941C26.944 3.89334 27.7193 3.12019 28.4946 2.34705C28.7576 2.08511 29.0673 1.9556 29.4326 2.08219C29.7355 2.18735 29.9653 2.41813 29.9566 2.73459C29.9497 2.98485 29.8631 3.29255 29.6975 3.46782C28.9144 4.29939 28.0992 5.09981 27.279 5.89438C27.1271 6.04239 26.8992 6.11152 26.7998 6.16508Z" fill="#C5197D"/>
<path d="M17.9807 10.3542C18.1356 10.3542 18.2914 10.3396 18.4434 10.3571C18.8485 10.4039 19.1349 10.7164 19.1592 11.1195C19.1826 11.5042 18.9498 11.8596 18.5622 11.9365C18.1794 12.0125 17.7849 12.0222 17.3963 12.0709C14.5483 12.4312 12.1328 14.8402 11.7734 17.6806C11.7364 17.9747 11.7218 18.2717 11.6984 18.5677C11.6546 19.1266 11.3137 19.4791 10.8335 19.4586C10.3416 19.4382 10.0358 19.0691 10.0436 18.5073C10.102 14.4215 13.1614 10.9657 17.2015 10.4233C17.4606 10.3883 17.7207 10.3639 17.9797 10.3347C17.9797 10.3406 17.9797 10.3474 17.9807 10.3542Z" fill="#C5197D"/>
</svg>
