<svg width="45" height="45" viewBox="0 0 45 45" fill="none" xmlns="http://www.w3.org/2000/svg">
<circle cx="22.5" cy="22.5" r="22.5" fill="#F6F6F6"/>
<path d="M22.9375 35C24.6621 35 26.0611 33.6011 26.0611 31.875H19.814C19.814 33.6011 21.2129 35 22.9375 35ZM33.4546 27.6899C32.5113 26.6763 30.7461 25.1514 30.7461 20.1562C30.7461 16.3623 28.086 13.3252 24.4991 12.5801V11.5625C24.4991 10.6997 23.7998 10 22.9375 10C22.0752 10 21.376 10.6997 21.376 11.5625V12.5801C17.7891 13.3252 15.1289 16.3623 15.1289 20.1562C15.1289 25.1514 13.3638 26.6763 12.4204 27.6899C12.1275 28.0049 11.9976 28.3813 12 28.75C12.0054 29.5508 12.6338 30.3125 13.5674 30.3125H32.3077C33.2412 30.3125 33.8702 29.5508 33.875 28.75C33.8775 28.3813 33.7476 28.0044 33.4546 27.6899Z" fill="#C5197D"/>
</svg>
