<svg width="17" height="16" viewBox="0 0 17 16" fill="none" xmlns="http://www.w3.org/2000/svg">
<path d="M0 14.3206C0.094076 13.8298 0.411147 13.4878 0.751613 13.1498C2.42955 11.4828 4.09853 9.80739 5.77199 8.13642C5.81579 8.09262 5.87701 8.06524 5.93625 8.02642C5.85959 7.94628 5.82126 7.90447 5.78095 7.86415C4.03034 6.11304 2.27973 4.36292 0.529613 2.61181C-0.0373317 2.04487 -0.075659 1.15886 0.438524 0.547117C0.950217 -0.0621374 1.83822 -0.17911 2.48978 0.279822C2.57091 0.337064 2.64458 0.406252 2.71576 0.476436C4.44945 2.19868 6.18264 3.92241 7.91533 5.64564C7.96759 5.69741 8.01538 5.75416 8.0771 5.82185C8.13334 5.76859 8.17814 5.72777 8.22145 5.68447C9.94617 3.96024 11.6689 2.23402 13.3951 0.511777C14.2453 -0.336402 15.6405 -0.00738412 15.971 1.12352C16.1373 1.69246 16.0178 2.20913 15.5917 2.63571C13.8645 4.36491 12.1358 6.09263 10.4076 7.82034C10.3633 7.86465 10.314 7.90447 10.2503 7.96171C10.316 8.02841 10.3693 8.08316 10.4235 8.13692C12.1751 9.87857 13.9262 11.6212 15.6798 13.3609C16.0108 13.6894 16.1915 14.0762 16.1831 14.545C16.1686 15.3444 15.5265 15.9786 14.7271 15.997C14.1866 16.0094 13.7396 15.8312 13.3538 15.442C11.6475 13.7223 9.93024 12.0125 8.21746 10.2987C8.17316 10.2544 8.13882 10.1996 8.05868 10.0976C8.00194 10.1872 7.97655 10.2499 7.93225 10.2937C6.1906 12.0383 4.44746 13.781 2.70431 15.5241C2.16972 16.0587 1.25733 16.1563 0.621698 15.7486C0.296165 15.5396 0.126928 15.228 0.0343452 14.8646C0.0253856 14.8303 0.0114484 14.7969 0 14.7631C0 14.6152 0 14.4679 0 14.3206Z" fill="#454546"/>
</svg>
