<svg width="80" height="80" viewBox="0 0 80 80" fill="none" xmlns="http://www.w3.org/2000/svg">
<path d="M79.9804 37.6505C79.9804 39.2127 79.9804 40.775 79.9804 42.3373C79.9316 42.6146 79.8769 42.8899 79.8359 43.1672C79.586 44.8896 79.4434 46.6335 79.0743 48.3305C76.9867 57.9365 72.0539 65.8063 64.2309 71.7312C54.4999 79.1051 43.5387 81.5481 31.5893 79.0563C22.0224 77.0624 14.2462 72.0476 8.29793 64.3144C1.87312 55.966 -0.798348 46.4558 0.205406 35.9925C1.01974 27.5134 4.31025 20.0262 9.96174 13.6346C16.1561 6.62789 23.8717 2.26333 33.093 0.622952C34.5986 0.355414 36.1238 0.205047 37.6411 0C39.2034 0 40.7657 0 42.3279 0C42.5291 0.044915 42.7283 0.115217 42.9314 0.128887C49.1882 0.570225 55.0408 2.35901 60.3799 5.63195C70.7396 11.9825 77.1195 21.1354 79.3555 33.1121C79.6367 34.6119 79.7754 36.1371 79.9804 37.6505ZM40.0119 6.21194C21.4014 6.17874 6.26308 21.2858 6.2045 39.949C6.14591 58.534 21.253 73.6918 39.922 73.7758C58.5227 73.8598 73.7607 58.6551 73.7685 39.9997C73.7763 21.3678 58.6672 6.24514 40.0119 6.21194Z" fill="#C5197D"/>
<path d="M36.8763 30.8548C36.8763 27.8611 36.8587 24.8674 36.8822 21.8737C36.9017 19.501 38.9541 17.9895 41.0593 18.759C42.3657 19.2374 43.0941 20.3935 43.0961 22.0358C43.1 27.2694 43.1097 32.501 43.0844 37.7326C43.0805 38.4181 43.266 38.8555 43.8382 39.2753C47.2732 41.8062 50.6828 44.3742 54.0846 46.9519C55.6274 48.1216 55.9184 50.0061 54.8267 51.4161C53.7527 52.8045 51.9033 53.0271 50.384 51.9023C47.5192 49.7796 44.6759 47.6295 41.8228 45.4912C40.698 44.6476 39.5908 43.7805 38.4464 42.9681C37.3548 42.1929 36.8666 41.1618 36.8724 39.8378C36.8861 36.8421 36.8763 33.8484 36.8763 30.8548Z" fill="#C5197D"/>
</svg>
