<svg width="70" height="70" viewBox="0 0 70 70" fill="none" xmlns="http://www.w3.org/2000/svg">
<path d="M18 47.6411C18.1882 46.6595 18.8223 45.9756 19.5032 45.2997C22.8591 41.9657 26.1971 38.6148 29.544 35.2728C29.6316 35.1852 29.754 35.1305 29.8725 35.0528C29.7192 34.8926 29.6425 34.8089 29.5619 34.7283C26.0607 31.2261 22.5595 27.7258 19.0592 24.2236C17.9253 23.0897 17.8487 21.3177 18.877 20.0942C19.9004 18.8757 21.6764 18.6418 22.9796 19.5596C23.1418 19.6741 23.2892 19.8125 23.4315 19.9529C26.8989 23.3974 30.3653 26.8448 33.8307 30.2913C33.9352 30.3948 34.0308 30.5083 34.1542 30.6437C34.2667 30.5372 34.3563 30.4555 34.4429 30.3689C37.8923 26.9205 41.3378 23.468 44.7903 20.0236C46.4906 18.3272 49.281 18.9852 49.942 21.247C50.2745 22.3849 50.0356 23.4183 49.1835 24.2714C45.729 27.7298 42.2716 31.1853 38.8152 34.6407C38.7266 34.7293 38.628 34.8089 38.5006 34.9234C38.632 35.0568 38.7385 35.1663 38.847 35.2738C42.3503 38.7571 45.8525 42.2424 49.3597 45.7218C50.0217 46.3788 50.383 47.1523 50.3661 48.0901C50.3373 49.6889 49.053 50.9572 47.4543 50.994C46.3731 51.0189 45.4792 50.6625 44.7076 49.884C41.295 46.4445 37.8605 43.0249 34.4349 39.5974C34.3463 39.5088 34.2776 39.3992 34.1174 39.1952C34.0039 39.3744 33.9531 39.4998 33.8645 39.5874C30.3812 43.0767 26.8949 46.562 23.4086 50.0483C22.3394 51.1174 20.5147 51.3126 19.2434 50.4972C18.5923 50.0791 18.2539 49.4559 18.0687 48.7292C18.0508 48.6605 18.0229 48.5938 18 48.5261C18 48.2305 18 47.9358 18 47.6411Z" fill="#C5197D"/>
<circle cx="35" cy="35" r="33" stroke="#C5197D" stroke-width="4"/>
</svg>
