<svg width="34" height="25" viewBox="0 0 34 25" fill="none" xmlns="http://www.w3.org/2000/svg">
<path d="M30.2601 25H3.13035C1.40148 25 0 23.6009 0 21.875V3.125C0 1.39909 1.40148 0 3.13035 0H30.2601C31.9889 0 33.3904 1.39909 33.3904 3.125V21.875C33.3904 23.6009 31.9889 25 30.2601 25ZM7.30415 3.64583C5.28716 3.64583 3.65208 5.27812 3.65208 7.29167C3.65208 9.30521 5.28716 10.9375 7.30415 10.9375C9.32114 10.9375 10.9562 9.30521 10.9562 7.29167C10.9562 5.27812 9.32114 3.64583 7.30415 3.64583ZM4.1738 20.8333H29.2166V13.5417L23.5093 7.84408C23.2037 7.539 22.7082 7.539 22.4025 7.84408L13.5649 16.6667L9.94441 13.0524C9.63881 12.7473 9.1433 12.7473 8.83763 13.0524L4.1738 17.7083V20.8333Z" fill="#C5197D"/>
</svg>
