<svg width="29" height="22" viewBox="0 0 29 22" fill="none" xmlns="http://www.w3.org/2000/svg">
<path d="M25.5715 11.2857C25.5715 10.6548 25.0595 10.1428 24.4286 10.1428C23.7978 10.1428 23.2858 10.6548 23.2858 11.2857C23.2858 11.5577 23.2858 19.5851 23.2858 19.8571C23.2858 20.488 23.7978 21 24.4286 21C25.0595 21 25.5715 20.488 25.5715 19.8571C25.5715 19.5851 25.5715 11.5577 25.5715 11.2857Z" stroke="#C5197D" stroke-width="0.8" stroke-miterlimit="10"/>
<path d="M5.00006 10.7143C5.00006 5.34915 9.34921 1 14.7144 1C20.0795 1 24.4287 5.34915 24.4287 10.7143" stroke="#C5197D" stroke-width="0.8" stroke-miterlimit="10"/>
<path d="M25.5717 11.2857C27.1499 11.2857 28.4288 13.204 28.4288 15.5715C28.4288 17.9377 27.1499 19.8572 25.5717 19.8572" stroke="#C5197D" stroke-width="0.8" stroke-miterlimit="10"/>
<path d="M3.85724 11.2857C3.85724 10.6548 4.36924 10.1428 5.0001 10.1428C5.63096 10.1428 6.14296 10.6548 6.14296 11.2857C6.14296 11.5577 6.14296 19.5851 6.14296 19.8571C6.14296 20.488 5.63096 21 5.0001 21C4.36924 21 3.85724 20.488 3.85724 19.8571C3.85724 19.5851 3.85724 11.5577 3.85724 11.2857Z" stroke="#C5197D" stroke-width="0.8" stroke-miterlimit="10"/>
<path d="M3.85715 11.2857C2.27943 11.2857 1 13.204 1 15.5715C1 17.9377 2.27943 19.8572 3.85715 19.8572" stroke="#C5197D" stroke-width="0.8" stroke-miterlimit="10"/>
</svg>
