<svg width="44" height="44" viewBox="0 0 44 44" fill="none" xmlns="http://www.w3.org/2000/svg">
<circle cx="22" cy="22" r="22" fill="#C5197D"/>
<path d="M21.875 31C23.1167 31 24.124 29.9928 24.124 28.75H19.6261C19.6261 29.9928 20.6333 31 21.875 31ZM29.4473 25.7368C28.7681 25.0069 27.4972 23.909 27.4972 20.3125C27.4972 17.5809 25.5819 15.3941 22.9993 14.8577V14.125C22.9993 13.5038 22.4959 13 21.875 13C21.2542 13 20.7507 13.5038 20.7507 14.125V14.8577C18.1681 15.3941 16.2528 17.5809 16.2528 20.3125C16.2528 23.909 14.9819 25.0069 14.3027 25.7368C14.0918 25.9635 13.9983 26.2346 14 26.5C14.0039 27.0766 14.4564 27.625 15.1285 27.625H28.6215C29.2937 27.625 29.7465 27.0766 29.75 26.5C29.7518 26.2346 29.6583 25.9632 29.4473 25.7368Z" fill="white"/>
</svg>
