<svg width="24" height="24" viewBox="0 0 24 24" fill="none" xmlns="http://www.w3.org/2000/svg">
<path d="M23.9751 12.5063C23.837 12.918 23.6504 13.3001 23.3238 13.5999C22.9031 13.9857 22.4097 14.1897 21.8378 14.1977C21.7207 14.1991 21.6037 14.1981 21.4453 14.1981C21.4453 14.2978 21.4453 14.3871 21.4453 14.4764C21.4453 16.7749 21.4491 19.073 21.4435 21.3715C21.4402 22.6291 20.6427 23.6438 19.4405 23.9272C19.23 23.9765 19.0077 23.9948 18.7906 23.9958C17.571 24.0023 16.3515 23.9995 15.132 23.9986C14.6023 23.9981 14.3208 23.719 14.3204 23.1893C14.3189 21.3913 14.3006 19.5928 14.3288 17.7952C14.341 17.0038 13.7968 16.4267 12.9913 16.4539C12.3433 16.476 11.6928 16.4774 11.0452 16.4535C10.251 16.4238 9.68283 16.9798 9.69693 17.8079C9.72748 19.5819 9.70633 21.357 9.70586 23.1315C9.70586 23.7401 9.44551 23.9986 8.83363 23.9986C7.64558 23.9986 6.45706 24 5.26901 23.9981C3.69607 23.9958 2.58369 22.8857 2.58181 21.3109C2.57899 19.0438 2.58087 16.7768 2.58087 14.5097C2.58087 14.4171 2.58087 14.3246 2.58087 14.2226C2.31017 14.1996 2.05217 14.2005 1.80356 14.1521C0.966573 13.9881 0.395107 13.4909 0.125353 12.6877C-0.142052 11.8921 0.0243123 11.1622 0.567581 10.5217C0.628205 10.4502 0.695878 10.3845 0.762142 10.3182C3.9569 7.12296 7.14884 3.92492 10.353 0.738619C10.6016 0.491422 10.9075 0.245636 11.2323 0.143186C12.0538 -0.11623 12.8569 -0.0532558 13.5219 0.582594C13.9284 0.971247 14.3218 1.37494 14.7198 1.77299C17.4949 4.54761 20.2672 7.32551 23.0479 10.095C23.4521 10.4972 23.8149 10.9141 23.9751 11.4743C23.9751 11.8183 23.9751 12.1623 23.9751 12.5063ZM8.29882 22.5864C8.29882 22.4679 8.29882 22.3754 8.29882 22.2833C8.3007 20.6962 8.28566 19.1092 8.30916 17.5231C8.32748 16.273 9.32896 15.1752 10.5743 15.0915C11.5307 15.0271 12.4946 15.0779 13.4556 15.0807C13.5327 15.0807 13.6107 15.099 13.6864 15.1164C14.9148 15.3956 15.7194 16.4027 15.7255 17.6899C15.7326 19.23 15.7274 20.7695 15.7274 22.3096C15.7274 22.3998 15.7274 22.49 15.7274 22.5915C16.7406 22.5915 17.7172 22.5915 18.6942 22.5915C19.5763 22.5915 20.0383 22.1305 20.0388 21.2498C20.0392 18.6937 20.0383 16.1376 20.0397 13.5816C20.0402 13.0825 20.3273 12.7963 20.825 12.7925C21.161 12.7897 21.4975 12.7972 21.8335 12.7897C22.1992 12.7817 22.4882 12.5477 22.5845 12.1947C22.6926 11.7985 22.4901 11.5274 22.2283 11.2661C19.0589 8.10141 15.8924 4.93297 12.7249 1.76594C12.214 1.2551 11.816 1.25604 11.3028 1.76876C8.47834 4.59319 5.65344 7.41762 2.82901 10.2421C2.44223 10.6288 2.05311 11.0137 1.66869 11.4033C1.41303 11.6623 1.33596 11.9706 1.48164 12.3066C1.62216 12.6308 1.88628 12.7916 2.24297 12.792C2.52447 12.7925 2.80598 12.792 3.08701 12.7925C3.74166 12.793 3.98933 13.042 3.98933 13.7014C3.98933 16.2575 3.98792 18.8136 3.99027 21.3697C3.99074 22.0257 4.43296 22.5624 5.05377 22.5793C6.12198 22.6075 7.19301 22.5864 8.29882 22.5864Z" fill="#C5197D"/>
</svg>
