<svg width="52" height="52" viewBox="0 0 52 52" fill="none" xmlns="http://www.w3.org/2000/svg">
<g filter="url(#filter0_d_1_3983)">
<circle cx="26" cy="23" r="22" fill="#66276E"/>
</g>
<path d="M16.2224 28.8451C16.4322 27.9106 17.105 27.378 17.8836 26.9415C18.1678 26.7821 18.5064 26.8809 18.6623 27.1524C18.8155 27.4187 18.731 27.7395 18.4677 27.9234C18.2024 28.1082 17.9208 28.2773 17.6845 28.4942C17.2613 28.8823 17.2654 29.2525 17.6712 29.6604C18.1494 30.1417 18.757 30.407 19.3788 30.6387C20.6137 31.0991 21.8991 31.3364 23.2043 31.4815C24.6053 31.6374 26.0098 31.6756 27.4168 31.5941C29.297 31.4851 31.1543 31.2407 32.9112 30.518C33.3471 30.3388 33.7708 30.0979 34.1487 29.8152C34.799 29.3294 34.7858 28.8558 34.1573 28.3435C33.9908 28.2075 33.807 28.0904 33.6231 27.9773C33.2804 27.7675 33.1658 27.4401 33.3425 27.1442C33.5182 26.8499 33.8706 26.7735 34.2057 26.9955C34.5378 27.2155 34.8774 27.4411 35.1585 27.7197C35.9973 28.5518 35.9825 29.6166 35.1529 30.4595C34.6803 30.9397 34.1034 31.259 33.4928 31.5223C32.2212 32.0707 30.8828 32.3681 29.517 32.5423C28.748 32.6406 27.9719 32.6813 27.1989 32.7486C27.1429 32.7536 27.0879 32.7679 27.0319 32.7781C26.3444 32.7781 25.6569 32.7781 24.9694 32.7781C24.9139 32.7679 24.8589 32.7547 24.8028 32.7486C23.7869 32.6431 22.7653 32.5734 21.7555 32.4252C20.5088 32.2429 19.2922 31.9205 18.1571 31.3568C17.2638 30.9147 16.4577 30.3734 16.2224 29.3034C16.2224 29.1507 16.2224 28.9979 16.2224 28.8451Z" fill="white"/>
<path d="M31.3427 18.448C31.3335 19.1254 31.1395 19.7573 30.9123 20.3797C30.3109 22.0276 29.4859 23.5686 28.6258 25.0913C28.1975 25.8496 27.7504 26.5977 27.3007 27.3437C26.6529 28.4198 25.3503 28.4213 24.702 27.3508C23.5424 25.436 22.419 23.5014 21.5146 21.4491C21.1861 20.704 20.8754 19.9488 20.7379 19.1422C20.5622 18.1104 20.7665 17.1276 21.2253 16.1992C22.2453 14.1367 24.4463 12.9664 26.71 13.2699C28.9451 13.5699 30.7535 15.256 31.2159 17.4856C31.2815 17.8013 31.3014 18.1267 31.3427 18.448ZM26.0159 16.0469C24.8344 16.0403 23.8683 16.9895 23.8612 18.1629C23.8541 19.3499 24.8125 20.3211 25.994 20.3247C27.1678 20.3282 28.1338 19.3688 28.1389 18.1944C28.144 17.0145 27.1938 16.053 26.0159 16.0469Z" fill="white"/>
<path d="M23.3164 27.2761C22.385 27.4635 21.4663 27.5903 20.6571 28.18C20.7829 28.2732 20.8745 28.3573 20.98 28.4168C21.5188 28.7209 22.1105 28.8767 22.7109 28.9862C24.9567 29.3951 27.2051 29.3997 29.4443 28.949C29.9322 28.8507 30.4027 28.6598 30.8743 28.4917C31.0306 28.4362 31.1645 28.3175 31.353 28.2004C31.2119 28.0996 31.1131 28.014 31.0016 27.9524C30.4083 27.6265 29.7565 27.4824 29.1 27.3556C28.9702 27.3306 28.8398 27.3087 28.6819 27.2802C28.8821 26.939 29.0669 26.6161 29.2625 26.2999C29.2849 26.2632 29.3735 26.2428 29.4239 26.2525C30.1185 26.3865 30.805 26.552 31.4345 26.886C31.657 27.0042 31.875 27.1478 32.0583 27.3184C32.6129 27.8348 32.6083 28.5406 32.0608 29.0641C31.6499 29.4567 31.1355 29.664 30.6059 29.8321C29.6185 30.1453 28.5994 30.294 27.5697 30.3678C26.2783 30.4605 24.9873 30.4513 23.7004 30.2965C22.6437 30.1692 21.5941 29.9976 20.6286 29.5209C20.3541 29.3855 20.0888 29.2006 19.8713 28.9857C19.4064 28.5258 19.416 27.8719 19.8616 27.3922C20.237 26.9879 20.7258 26.7669 21.2361 26.6019C21.6583 26.4654 22.0947 26.3712 22.524 26.2566C22.6417 26.225 22.7206 26.2444 22.7863 26.3661C22.9503 26.6681 23.1311 26.9599 23.3164 27.2761Z" fill="white"/>
<defs>
<filter id="filter0_d_1_3983" x="0" y="0" width="52" height="52" filterUnits="userSpaceOnUse" color-interpolation-filters="sRGB">
<feFlood flood-opacity="0" result="BackgroundImageFix"/>
<feColorMatrix in="SourceAlpha" type="matrix" values="0 0 0 0 0 0 0 0 0 0 0 0 0 0 0 0 0 0 127 0" result="hardAlpha"/>
<feOffset dy="3"/>
<feGaussianBlur stdDeviation="2"/>
<feComposite in2="hardAlpha" operator="out"/>
<feColorMatrix type="matrix" values="0 0 0 0 0 0 0 0 0 0 0 0 0 0 0 0 0 0 0.04 0"/>
<feBlend mode="normal" in2="BackgroundImageFix" result="effect1_dropShadow_1_3983"/>
<feBlend mode="normal" in="SourceGraphic" in2="effect1_dropShadow_1_3983" result="shape"/>
</filter>
</defs>
</svg>
