<svg width="28" height="25" viewBox="0 0 28 25" fill="none" xmlns="http://www.w3.org/2000/svg">
<path d="M0 12.5067C0.0279059 6.78403 3.91878 1.71513 9.46807 0.396575C13.9908 -0.677801 17.9843 0.436441 21.354 3.67053C22.0935 4.38014 22.1114 5.47844 21.4287 6.19303C20.7341 6.91958 19.6298 6.95446 18.8873 6.22891C17.6435 5.01301 16.1964 4.1858 14.5001 3.78814C9.5787 2.63503 4.53869 5.9947 3.72444 10.9779C2.99889 15.4149 5.49148 19.6257 9.77802 20.9831C13.0948 22.0326 16.0937 21.316 18.677 18.964C19.0039 18.667 19.3238 18.3789 19.7733 18.2932C20.5637 18.1417 21.3311 18.4975 21.7038 19.1882C22.0855 19.8948 21.9629 20.728 21.3779 21.313C20.0474 22.6455 18.5006 23.6412 16.7256 24.274C9.79297 26.7427 2.19061 22.6874 0.403639 15.5614C0.304972 15.1668 0.220257 14.7651 0.170425 14.3615C0.0946807 13.7456 0.0548151 13.1256 0 12.5067Z" fill="white"/>
<path d="M21.8025 10.6399C21.671 10.5243 21.5314 10.4156 21.4078 10.2911C20.6863 9.55754 20.6743 8.44928 21.375 7.74665C22.0836 7.03704 23.1789 7.04103 23.9184 7.77356C25.0715 8.9157 26.2186 10.0628 27.3618 11.2159C28.1033 11.9644 28.1073 13.0338 27.3697 13.7793C26.2216 14.9394 25.0685 16.0945 23.9074 17.2416C23.1719 17.9682 22.0656 17.9612 21.364 17.2466C20.6763 16.546 20.6903 15.4467 21.3989 14.7221C21.5254 14.5926 21.661 14.471 21.7617 14.2846C21.664 14.2846 21.5673 14.2846 21.4696 14.2846C18.5016 14.2846 15.5346 14.2866 12.5667 14.2836C11.5561 14.2826 10.7667 13.5311 10.7428 12.5644C10.7169 11.5349 11.5052 10.7256 12.5547 10.7236C14.9287 10.7186 17.3027 10.7216 19.6767 10.7216C20.3703 10.7216 21.063 10.7216 21.7567 10.7216C21.7716 10.6937 21.7866 10.6668 21.8025 10.6399Z" fill="white"/>
</svg>
