<svg width="24" height="24" viewBox="0 0 22 22" fill="none" xmlns="http://www.w3.org/2000/svg">
<path fill-rule="evenodd" clip-rule="evenodd" d="M11 22C4.92486 22 0 17.0751 0 11C0 4.92486 4.92486 0 11 0C17.0751 0 22 4.92486 22 11C22 17.0751 17.0751 22 11 22ZM17.0935 18.8571C17.0112 18.7361 16.9075 18.5858 16.8242 18.4685C16.6791 18.2621 16.534 18.0557 16.4041 17.8514C16.3979 17.842 15.6802 16.8792 13.0952 16.7619C12.1959 16.7619 11.5421 16.0872 11.5406 15.1559L11.5238 14.6667C11.5154 14.7442 11.5238 14.596 11.5238 14.6667V14.1429L12.0476 13.619C12.4305 13.4415 12.9171 13.1429 13.3021 12.8522L13.3729 12.8035C13.6772 12.6102 14.1025 12.2032 14.1429 12.0476L14.1617 11.848C14.3571 10.8408 14.6667 9.00848 14.6667 8.38095C14.6667 5.91381 13.4671 4.71429 11 4.71429C8.49881 4.71429 7.33333 5.87924 7.33333 8.38095C7.33333 9.02524 7.6429 10.8486 7.83776 11.8465L7.8561 12.0309C7.8891 12.1948 8.27462 12.583 8.6151 12.7967L8.66643 12.8291C9.07919 13.1178 9.57262 13.4394 9.95238 13.619L10.4762 14.1429V14.6667C10.4762 14.5902 10.4835 14.739 10.4762 14.6667L10.4589 15.1559C10.4589 16.0857 9.80624 16.7609 8.94876 16.7609C8.94824 16.7609 8.94771 16.7609 8.94719 16.7609C6.35119 16.8661 5.59848 17.8488 5.59743 17.8488C5.46543 18.0562 5.32086 18.2621 5.17471 18.469C5.09248 18.5863 4.98876 18.7361 4.906 18.8571C6.5911 20.1656 8.701 20.9524 10.9995 20.9524C13.298 20.9524 15.4084 20.1656 17.0935 18.8571ZM11 1.04762C5.50367 1.04762 1.04762 5.50367 1.04762 11C1.04762 13.8212 2.22619 16.3622 4.11191 18.173C4.312 17.8771 4.52571 17.5817 4.71429 17.2857C4.71429 17.2857 5.58905 15.8489 8.90476 15.7143C9.24262 15.7143 9.41129 15.4932 9.41129 15.1559H9.41181C9.41129 14.883 9.41129 14.6667 9.41129 14.6667C9.41129 14.5986 9.40029 14.5373 9.39714 14.4713C9.01791 14.2921 8.5779 14.0449 8.06719 13.6887C8.06719 13.6887 6.81005 12.9156 6.81005 12.0476C6.81005 12.0476 6.28624 9.36781 6.28624 8.38095C6.28624 5.94838 7.32652 3.66667 11.0005 3.66667C14.6253 3.66667 15.7148 5.94838 15.7148 8.38095C15.7148 9.34371 15.191 12.0476 15.191 12.0476C15.191 12.8915 13.9339 13.6887 13.9339 13.6887C13.4336 14.0664 12.9905 14.3183 12.6018 14.4985C12.5992 14.5556 12.5898 14.608 12.5898 14.6667C12.5898 14.6667 12.5892 14.883 12.5892 15.1559H12.5898C12.5887 15.4932 12.7574 15.7143 13.0952 15.7143C16.4602 15.8651 17.2857 17.2857 17.2857 17.2857C17.4743 17.5817 17.6875 17.8771 17.8876 18.173C19.7733 16.3622 20.9524 13.8212 20.9524 11C20.9524 5.50367 16.4963 1.04762 11 1.04762Z" fill="#C5197D"/>
</svg>
