<svg width="20" height="24" viewBox="0 0 20 24" fill="none" xmlns="http://www.w3.org/2000/svg">
<path d="M9.56078 23.5388C8.01193 23.0548 6.5646 22.3583 5.23769 21.421C2.94747 19.8013 1.46237 17.615 0.690304 14.9328C0.267675 13.4689 0.0599023 11.965 0.0174033 10.4468C-0.0227346 9.02073 0.0221254 7.59465 0.000875963 6.16621C-0.0180125 4.785 0.980713 3.64697 2.46818 3.57142C3.56134 3.51711 4.62382 3.2999 5.64615 2.90088C6.62127 2.52075 7.50194 1.98715 8.28817 1.29773C8.66358 0.967179 9.01538 0.605938 9.51592 0.461914C9.69536 0.461914 9.87716 0.461914 10.0566 0.461914C10.5501 0.603577 10.8971 0.957735 11.2678 1.28356C12.5995 2.45228 14.1507 3.15824 15.8978 3.43212C16.3795 3.50767 16.8659 3.54545 17.3499 3.60447C18.6603 3.76739 19.5598 4.75195 19.5622 6.07413C19.5669 7.7552 19.5953 9.44099 19.5079 11.1173C19.3922 13.3367 18.9224 15.4853 17.8504 17.4662C16.9084 19.2063 15.5933 20.5993 13.9453 21.6854C12.8379 22.415 11.6456 22.9769 10.3966 23.4184C10.2715 23.4633 10.1392 23.4963 10.0117 23.5365C9.86063 23.5388 9.71189 23.5388 9.56078 23.5388ZM18.214 8.59338C18.214 7.75284 18.2211 6.91231 18.2117 6.07177C18.2046 5.46262 17.8457 5.04944 17.246 4.96208C16.5424 4.85819 15.827 4.80861 15.1305 4.66931C13.211 4.2821 11.5346 3.40615 10.1038 2.06271C9.77091 1.74869 9.81105 1.74633 9.4805 2.05562C8.04498 3.40378 6.36155 4.28446 4.43257 4.67167C3.74315 4.81097 3.03483 4.85819 2.33832 4.95972C1.72444 5.04944 1.37265 5.46026 1.36084 6.08594C1.34432 6.97842 1.31834 7.87325 1.31834 8.76573C1.31834 10.5412 1.43167 12.3049 1.8543 14.038C2.39971 16.2739 3.46926 18.1911 5.22825 19.7021C6.52683 20.8189 8.02373 21.5815 9.62925 22.1411C9.73786 22.1789 9.88661 22.1694 9.99521 22.1246C10.5926 21.8861 11.197 21.6547 11.7754 21.3737C15.2061 19.6998 17.213 16.9491 17.9 13.2116C18.1786 11.684 18.2589 10.1422 18.214 8.59338Z" fill="white"/>
<path d="M3.15356 10.3428C3.2362 10.1468 3.38731 10.076 3.59744 10.0831C3.95632 10.0925 4.3152 10.0831 4.67408 10.0878C4.7638 10.0902 4.79922 10.0571 4.83463 9.97918C4.98338 9.63919 5.13685 9.30156 5.2974 8.96865C5.59961 8.33825 6.1096 7.95812 6.76361 7.74327C7.49082 7.5048 8.23691 7.38439 8.99717 7.33244C9.80229 7.27814 10.6027 7.30175 11.4007 7.41272C12.0311 7.50008 12.645 7.65118 13.2305 7.90618C13.7145 8.11867 14.038 8.48936 14.2741 8.94504C14.4488 9.28267 14.5976 9.63211 14.751 9.97918C14.7865 10.0571 14.8242 10.0878 14.9116 10.0854C15.2823 10.0807 15.6553 10.0831 16.026 10.0831C16.3282 10.0831 16.4675 10.2578 16.4085 10.5529C16.3542 10.8244 16.2999 11.0936 16.2432 11.3651C16.196 11.5918 16.0756 11.6886 15.8442 11.6909C15.738 11.6909 15.6294 11.6909 15.5019 11.6909C15.5326 11.7358 15.5514 11.7665 15.5751 11.7948C16.2881 12.6944 16.2173 14.0189 15.4192 14.843C15.3744 14.8878 15.346 14.9681 15.3437 15.0318C15.3366 15.4025 15.3413 15.7756 15.339 16.1463C15.3366 16.4886 15.1312 16.694 14.7888 16.6964C14.4181 16.6987 14.0451 16.6987 13.6744 16.6964C13.3368 16.694 13.1361 16.4933 13.1314 16.1557C13.129 15.9999 13.1314 15.844 13.1314 15.6764C10.9049 15.6764 8.68315 15.6764 6.45195 15.6764C6.45195 15.8417 6.45431 15.9999 6.45195 16.1604C6.44723 16.4886 6.24418 16.6917 5.91599 16.694C5.54531 16.6964 5.17226 16.6964 4.80158 16.694C4.44978 16.6917 4.24673 16.4886 4.24437 16.1392C4.24201 15.7543 4.24673 15.3695 4.24201 14.987C4.24201 14.935 4.21604 14.8666 4.18062 14.8311C3.3755 14.052 3.29523 12.6661 4.0059 11.7759C4.02243 11.7571 4.03424 11.7334 4.06493 11.6909C3.95396 11.6909 3.86188 11.6909 3.7698 11.6909C3.503 11.6909 3.39439 11.5989 3.34009 11.3415C3.28342 11.0676 3.21967 10.7961 3.15829 10.5246C3.15356 10.4632 3.15356 10.4018 3.15356 10.3428ZM13.8869 10.6143C13.8208 10.3286 13.4737 9.55655 13.2896 9.26614C13.1833 9.09851 13.0535 8.96393 12.8717 8.87185C12.4726 8.66644 12.0453 8.55075 11.6061 8.47283C10.6357 8.29811 9.65826 8.2745 8.67842 8.37367C8.06691 8.43505 7.46721 8.5413 6.89347 8.77977C6.6125 8.89782 6.37404 9.05837 6.24182 9.33934C6.05294 9.74544 5.87586 10.1563 5.69406 10.5671C5.68933 10.5789 5.69642 10.5978 5.69642 10.6143C8.43051 10.6143 11.1528 10.6143 13.8869 10.6143ZM14.5622 13.3248C14.5645 12.7723 14.1112 12.3143 13.5611 12.3166C13.0157 12.319 12.5647 12.7699 12.5624 13.3154C12.56 13.8655 13.0133 14.3235 13.5634 14.3212C14.1136 14.3188 14.5598 13.8749 14.5622 13.3248ZM6.08363 14.3164C6.63612 14.2928 7.0493 13.8135 7.02569 13.2847C6.99972 12.685 6.50154 12.2954 5.98447 12.3237C5.37059 12.3568 4.99991 12.8573 5.0306 13.3579C5.06838 13.9434 5.54059 14.3613 6.08363 14.3164Z" fill="white"/>
</svg>
