<svg width="69" height="62" viewBox="0 0 69 62" fill="none" xmlns="http://www.w3.org/2000/svg">
<path d="M68.0532 42.963C67.9488 43.4106 67.8545 43.8608 67.74 44.306C66.6259 48.6167 62.8785 51.6763 58.4181 51.8963C57.4234 51.9454 56.4249 51.9378 55.429 51.9165C54.9801 51.9064 54.7399 52.012 54.5412 52.471C53.9401 53.8606 52.8461 54.6528 51.3257 54.7962C50.5461 54.8704 50.0632 54.5271 50.0003 53.9235C49.9374 53.3299 50.3625 52.9137 51.1346 52.8106C52.4525 52.6358 53.2221 51.4399 52.758 50.2616C52.4965 49.5964 52.001 49.1864 51.283 49.0695C51.1082 49.0405 50.9296 49.0317 50.7598 48.9865C50.2405 48.8444 49.9601 48.4797 50.0091 47.9578C50.0607 47.4108 50.4015 47.0914 50.9786 47.0562C52.4122 46.9681 53.9237 47.9151 54.5374 49.3775C54.7286 49.8328 54.9637 49.9661 55.4214 49.9397C56.811 49.8617 58.232 49.9723 59.5888 49.7246C63.5991 48.9902 66.4335 45.102 66.0349 41.0717C65.6224 36.9043 62.1542 33.6775 58.0195 33.6699C48.7843 33.6536 39.5479 33.6813 30.3127 33.6536C25.8259 33.6398 21.9439 30.6657 20.6776 26.3713C18.8278 20.0976 23.4077 13.6717 29.9417 13.4428C32.4857 13.3536 35.0346 13.419 37.5824 13.4139C37.8188 13.4139 38.0539 13.4139 38.5054 13.4139C37.9558 12.9097 37.5547 12.5488 37.1624 12.1803C36.604 11.6572 36.5273 11.0649 36.9498 10.6185C37.3711 10.1746 37.9194 10.1884 38.4777 10.6889C39.5328 11.6358 40.5828 12.5877 41.6215 13.5522C42.2289 14.1169 42.2276 14.689 41.6165 15.2562C40.5614 16.2358 39.4963 17.2041 38.4236 18.1635C37.9106 18.6213 37.3535 18.6112 36.9486 18.1812C36.5512 17.7586 36.5914 17.1827 37.0731 16.7136C37.4805 16.3163 37.9068 15.9378 38.4023 15.4788C38.2073 15.4435 38.1118 15.4109 38.0149 15.4109C35.4018 15.4109 32.7862 15.3467 30.1756 15.4335C26.8407 15.5441 24.3948 17.1852 23.0166 20.2007C21.656 23.176 22.0621 26.057 24.0842 28.6223C25.6662 30.6293 27.8115 31.6567 30.3793 31.6617C39.3932 31.6793 48.4083 31.7434 57.4221 31.6454C63.257 31.5812 67.403 35.8153 67.9513 40.3951C67.9639 40.5008 68.0205 40.6014 68.0569 40.7045C68.0532 41.4565 68.0532 42.2097 68.0532 42.963Z" fill="#C5197D"/>
<path d="M14.077 37.0065C12.3417 37.2718 10.7107 37.522 8.99416 37.7849C9.804 39.3178 8.84326 40.2886 8.03593 41.2833C7.70395 41.6919 7.22358 41.741 6.77968 41.4354C6.31062 41.1135 6.23769 40.657 6.45901 40.1465C6.47662 40.1062 6.49548 40.0622 6.52566 40.032C7.14436 39.4033 7.27891 38.7255 7.06388 37.8289C6.82998 36.853 7.53796 36.008 8.56032 35.8307C11.987 35.2371 15.4188 34.802 18.9197 34.9253C24.4415 35.1189 29.3231 36.9159 33.4742 40.5438C35.1982 42.0516 36.9424 43.2198 39.309 43.5983C41.8857 44.0121 44.2033 45.2318 46.1034 47.1169C47.4489 48.4523 48.3443 49.95 48.1104 51.9495C48.0337 52.6046 48.1079 53.2774 48.0953 53.9414C48.0664 55.4642 47.2452 56.6023 45.8028 57.094C44.8823 57.4083 43.9442 57.6712 43.0313 58.0019C42.7961 58.0874 42.5446 58.3037 42.434 58.5263C41.3651 60.6741 39.6699 61.9052 37.2593 61.9932C34.8461 62.08 33.0718 60.9646 31.8457 58.9048C31.7313 58.7124 31.4232 58.5477 31.193 58.5288C30.5555 58.4772 29.9104 58.5212 29.2678 58.5074C28.5523 58.4911 28.1323 58.0924 28.1511 57.475C28.1687 56.8852 28.5749 56.5306 29.2716 56.5193C29.8877 56.5092 30.5052 56.5168 31.1138 56.5168C31.6206 52.6298 33.5811 50.4342 36.6444 50.2757C39.9177 50.106 42.0001 51.9331 43.0061 55.8993C43.7833 55.6503 44.5956 55.4768 45.3162 55.1197C45.6645 54.9474 46.0191 54.4482 46.0619 54.0621C46.1675 53.1026 46.0971 52.1243 46.0971 51.0428C45.5626 51.0428 45.0647 51.0529 44.5667 51.0403C43.6827 51.0189 42.7848 51.0743 41.9196 50.9347C40.6508 50.7284 39.8523 49.4609 40.1226 48.2021C40.271 47.5155 40.5137 46.8477 40.7539 46.0367C39.7617 45.7663 38.8085 45.4343 37.8264 45.2583C36.7877 45.0721 35.7226 44.9464 34.6688 44.9426C27.4721 44.9162 20.2753 44.9288 13.0773 44.9288C12.8333 44.9288 12.5881 44.9401 12.3467 44.9175C10.8955 44.7842 10.1662 43.4072 10.9169 42.156C11.816 40.657 12.7629 39.187 13.6847 37.7019C13.8079 37.5069 13.9148 37.2969 14.077 37.0065ZM37.0769 60.0189C39.2273 60.0051 40.9476 58.266 40.9363 56.1181C40.9249 53.9854 39.1669 52.2525 37.0241 52.2639C34.8801 52.2739 33.1523 54.0256 33.1686 56.1697C33.1875 58.3238 34.9216 60.0328 37.0769 60.0189ZM33.1623 42.9029C29.8462 39.8044 26.1227 37.8653 21.7152 37.1825C21.7152 39.1304 21.7152 40.9991 21.7152 42.9029C25.5028 42.9029 29.2514 42.9029 33.1623 42.9029ZM19.6503 42.9155C19.6503 40.9098 19.6503 38.9719 19.6503 36.9272C18.6745 36.9272 17.7276 36.9046 16.7845 36.9461C16.6009 36.9536 16.3745 37.1775 16.2588 37.3586C15.1912 39.0399 14.1424 40.7325 13.0924 42.4251C13.0069 42.5621 12.9578 42.7206 12.8698 42.9155C15.1623 42.9155 17.3705 42.9155 19.6503 42.9155ZM42.6125 46.8553C42.4088 47.4954 42.2126 47.9468 42.1397 48.4184C42.1108 48.6045 42.3434 49.0069 42.4755 49.0157C43.3142 49.071 44.1593 49.0434 45.0018 49.0434C45.0295 48.9755 45.0559 48.9076 45.0835 48.8409C44.29 48.2021 43.4966 47.5645 42.6125 46.8553Z" fill="#C5197D"/>
<path d="M51.4062 18.0197C52.0324 18.0197 52.5606 18.0247 53.0887 18.0184C53.9615 18.0084 54.5613 18.3919 54.8933 19.2093C55.385 20.4177 55.9031 21.6149 56.3922 22.8234C56.8751 24.0155 56.2828 24.9209 55.0002 24.9259C51.9218 24.9385 48.8434 24.9398 45.765 24.9247C44.5175 24.9184 43.924 24.0105 44.3918 22.851C44.8885 21.6212 45.4129 20.4027 45.9184 19.1766C46.2428 18.3869 46.8339 18.0159 47.6764 18.0197C48.2259 18.0222 48.7767 18.0197 49.413 18.0197C49.413 17.694 49.413 17.4349 49.413 17.1759C49.413 11.927 49.4118 6.67942 49.4143 1.43056C49.4143 0.0498087 50.0393 -0.337505 51.2553 0.295024C53.5113 1.46828 55.7597 2.65663 58.0207 3.82109C58.8268 4.23607 59.3977 4.79944 59.4078 5.75389C59.4178 6.73978 58.8356 7.31823 58.0056 7.74453C55.9798 8.7845 53.9728 9.86218 51.9431 10.8984C51.5596 11.0945 51.3898 11.2983 51.3961 11.7497C51.4213 13.807 51.4062 15.863 51.4062 18.0197ZM54.2658 22.8976C53.8848 21.9871 53.5565 21.1446 53.173 20.3297C53.0988 20.1713 52.8071 20.0304 52.6121 20.0279C51.1295 20.0028 49.6457 20.0053 48.1631 20.0254C47.982 20.0279 47.7028 20.1424 47.6387 20.2832C47.2526 21.1207 46.9156 21.9821 46.5371 22.8976C49.1301 22.8976 51.6426 22.8976 54.2658 22.8976ZM51.4288 8.92534C53.4647 7.85897 55.3988 6.84541 57.441 5.77652C55.3774 4.69883 53.4358 3.68528 51.4288 2.63777C51.4288 4.76297 51.4288 6.76996 51.4288 8.92534Z" fill="#C5197D"/>
<path d="M15.4488 56.5169C15.9003 56.5169 16.3605 56.5169 16.8208 56.5169C19.278 56.5169 21.7364 56.5156 24.1936 56.5181C25.0147 56.5194 25.4838 56.8991 25.4675 57.5342C25.4511 58.1428 24.9934 58.5075 24.2125 58.5088C21.3126 58.5125 18.4115 58.5176 15.5117 58.5025C15.0967 58.5 14.8503 58.5955 14.6252 58.9866C13.4972 60.9446 11.7845 61.9971 9.5159 61.9996C7.21842 62.0021 5.49437 60.937 4.36009 58.9489C4.16644 58.6094 3.96272 58.5012 3.58672 58.5012C1.68285 58.5 1.08427 57.9932 0.748516 56.0981C0.497014 54.6834 0.248026 53.2662 0.056884 51.8414C-0.140546 50.3638 0.176348 48.963 1.00128 47.7243C1.87273 46.4178 2.8121 45.1577 3.7414 43.8902C4.14003 43.3469 4.71346 43.2551 5.18628 43.606C5.65533 43.9543 5.72701 44.5076 5.33089 45.0735C4.61914 46.0883 3.91368 47.1094 3.15414 48.0865C2.18711 49.3327 1.80105 50.682 2.12046 52.2489C2.36819 53.4611 2.55179 54.6884 2.72407 55.9145C2.80204 56.4691 3.04096 56.6401 3.55403 56.4628C4.11865 52.4199 6.23253 50.2444 9.5662 50.267C12.8244 50.2909 14.9546 52.5305 15.4488 56.5169ZM9.50081 60.0165C11.6449 60.0165 13.3978 58.2749 13.3966 56.1421C13.3953 54.0106 11.6424 52.2627 9.50207 52.2614C7.36807 52.2602 5.60629 54.0144 5.60755 56.1409C5.60755 58.2736 7.35801 60.0153 9.50081 60.0165Z" fill="#C5197D"/>
</svg>
