<svg width="116" height="116" viewBox="0 0 116 116" fill="none" xmlns="http://www.w3.org/2000/svg">
<circle cx="58" cy="58" r="58" fill="#E5E5E5"/>
<path d="M92.0532 69.963C91.9488 70.4106 91.8545 70.8608 91.74 71.306C90.6259 75.6167 86.8785 78.6763 82.4181 78.8963C81.4234 78.9454 80.4249 78.9378 79.429 78.9165C78.9801 78.9064 78.7399 79.012 78.5412 79.471C77.9401 80.8606 76.8461 81.6528 75.3257 81.7962C74.5461 81.8704 74.0632 81.5271 74.0003 80.9235C73.9374 80.3299 74.3625 79.9137 75.1346 79.8106C76.4525 79.6358 77.2221 78.4399 76.758 77.2616C76.4965 76.5964 76.001 76.1864 75.283 76.0695C75.1082 76.0405 74.9296 76.0317 74.7598 75.9865C74.2405 75.8444 73.9601 75.4797 74.0091 74.9578C74.0607 74.4108 74.4015 74.0914 74.9786 74.0562C76.4122 73.9681 77.9237 74.9151 78.5374 76.3775C78.7286 76.8328 78.9637 76.9661 79.4214 76.9397C80.811 76.8617 82.232 76.9723 83.5888 76.7246C87.5991 75.9902 90.4335 72.102 90.0349 68.0717C89.6224 63.9043 86.1542 60.6775 82.0195 60.6699C72.7843 60.6536 63.5479 60.6813 54.3127 60.6536C49.8259 60.6398 45.9439 57.6657 44.6776 53.3713C42.8278 47.0976 47.4077 40.6717 53.9417 40.4428C56.4857 40.3536 59.0346 40.419 61.5824 40.4139C61.8188 40.4139 62.0539 40.4139 62.5054 40.4139C61.9558 39.9097 61.5547 39.5488 61.1624 39.1803C60.604 38.6572 60.5273 38.0649 60.9498 37.6185C61.3711 37.1746 61.9194 37.1884 62.4777 37.6889C63.5328 38.6358 64.5828 39.5877 65.6215 40.5522C66.2289 41.1169 66.2276 41.689 65.6165 42.2562C64.5614 43.2358 63.4963 44.2041 62.4236 45.1635C61.9106 45.6213 61.3535 45.6112 60.9486 45.1812C60.5512 44.7586 60.5914 44.1827 61.0731 43.7136C61.4805 43.3163 61.9068 42.9378 62.4023 42.4788C62.2073 42.4435 62.1118 42.4109 62.0149 42.4109C59.4018 42.4109 56.7862 42.3467 54.1756 42.4335C50.8407 42.5441 48.3948 44.1852 47.0166 47.2007C45.656 50.176 46.0621 53.057 48.0842 55.6223C49.6662 57.6293 51.8115 58.6567 54.3793 58.6617C63.3932 58.6793 72.4083 58.7434 81.4221 58.6454C87.257 58.5812 91.403 62.8153 91.9513 67.3951C91.9639 67.5008 92.0205 67.6014 92.0569 67.7045C92.0532 68.4565 92.0532 69.2097 92.0532 69.963Z" fill="#C5197D"/>
<path d="M38.077 64.0065C36.3417 64.2718 34.7107 64.522 32.9942 64.7849C33.804 66.3178 32.8433 67.2886 32.0359 68.2833C31.7039 68.6919 31.2236 68.741 30.7797 68.4354C30.3106 68.1135 30.2377 67.657 30.459 67.1465C30.4766 67.1062 30.4955 67.0622 30.5257 67.032C31.1444 66.4033 31.2789 65.7255 31.0639 64.8289C30.83 63.853 31.538 63.008 32.5603 62.8307C35.987 62.2371 39.4188 61.802 42.9197 61.9253C48.4415 62.1189 53.3231 63.9159 57.4742 67.5438C59.1982 69.0516 60.9424 70.2198 63.309 70.5983C65.8857 71.0121 68.2033 72.2318 70.1034 74.1169C71.4489 75.4523 72.3443 76.95 72.1104 78.9495C72.0337 79.6046 72.1079 80.2774 72.0953 80.9414C72.0664 82.4642 71.2452 83.6023 69.8028 84.094C68.8823 84.4083 67.9442 84.6712 67.0313 85.0019C66.7961 85.0874 66.5446 85.3037 66.434 85.5263C65.3651 87.6741 63.6699 88.9052 61.2593 88.9932C58.8461 89.08 57.0718 87.9646 55.8457 85.9048C55.7313 85.7124 55.4232 85.5477 55.193 85.5288C54.5555 85.4772 53.9104 85.5212 53.2678 85.5074C52.5523 85.4911 52.1323 85.0924 52.1511 84.475C52.1687 83.8852 52.5749 83.5306 53.2716 83.5193C53.8877 83.5092 54.5052 83.5168 55.1138 83.5168C55.6206 79.6298 57.5811 77.4342 60.6444 77.2757C63.9177 77.106 66.0001 78.9331 67.0061 82.8993C67.7833 82.6503 68.5956 82.4768 69.3162 82.1197C69.6645 81.9474 70.0191 81.4482 70.0619 81.0621C70.1675 80.1026 70.0971 79.1243 70.0971 78.0428C69.5626 78.0428 69.0647 78.0529 68.5667 78.0403C67.6827 78.0189 66.7848 78.0743 65.9196 77.9347C64.6508 77.7284 63.8523 76.4609 64.1226 75.2021C64.271 74.5155 64.5137 73.8477 64.7539 73.0367C63.7617 72.7663 62.8085 72.4343 61.8264 72.2583C60.7877 72.0721 59.7226 71.9464 58.6688 71.9426C51.4721 71.9162 44.2753 71.9288 37.0773 71.9288C36.8333 71.9288 36.5881 71.9401 36.3467 71.9175C34.8955 71.7842 34.1662 70.4072 34.9169 69.156C35.816 67.657 36.7629 66.187 37.6847 64.7019C37.8079 64.5069 37.9148 64.2969 38.077 64.0065ZM61.0769 87.0189C63.2273 87.0051 64.9476 85.266 64.9363 83.1181C64.9249 80.9854 63.1669 79.2525 61.0241 79.2639C58.8801 79.2739 57.1523 81.0256 57.1686 83.1697C57.1875 85.3238 58.9216 87.0328 61.0769 87.0189ZM57.1623 69.9029C53.8462 66.8044 50.1227 64.8653 45.7152 64.1825C45.7152 66.1304 45.7152 67.9991 45.7152 69.9029C49.5028 69.9029 53.2514 69.9029 57.1623 69.9029ZM43.6503 69.9155C43.6503 67.9098 43.6503 65.9719 43.6503 63.9272C42.6745 63.9272 41.7276 63.9046 40.7845 63.9461C40.6009 63.9536 40.3745 64.1775 40.2588 64.3586C39.1912 66.0399 38.1424 67.7325 37.0924 69.4251C37.0069 69.5621 36.9578 69.7206 36.8698 69.9155C39.1623 69.9155 41.3705 69.9155 43.6503 69.9155ZM66.6125 73.8553C66.4088 74.4954 66.2126 74.9468 66.1397 75.4184C66.1108 75.6045 66.3434 76.0069 66.4755 76.0157C67.3142 76.071 68.1593 76.0434 69.0018 76.0434C69.0295 75.9755 69.0559 75.9076 69.0835 75.8409C68.29 75.2021 67.4966 74.5645 66.6125 73.8553Z" fill="#C5197D"/>
<path d="M75.4062 45.0197C76.0324 45.0197 76.5606 45.0247 77.0887 45.0184C77.9615 45.0084 78.5613 45.3919 78.8933 46.2093C79.385 47.4177 79.9031 48.6149 80.3922 49.8234C80.8751 51.0155 80.2828 51.9209 79.0002 51.9259C75.9218 51.9385 72.8434 51.9398 69.765 51.9247C68.5175 51.9184 67.924 51.0105 68.3918 49.851C68.8885 48.6212 69.4129 47.4027 69.9184 46.1766C70.2428 45.3869 70.8339 45.0159 71.6764 45.0197C72.2259 45.0222 72.7767 45.0197 73.413 45.0197C73.413 44.694 73.413 44.4349 73.413 44.1759C73.413 38.927 73.4118 33.6794 73.4143 28.4306C73.4143 27.0498 74.0393 26.6625 75.2553 27.295C77.5113 28.4683 79.7597 29.6566 82.0207 30.8211C82.8268 31.2361 83.3977 31.7994 83.4078 32.7539C83.4178 33.7398 82.8356 34.3182 82.0056 34.7445C79.9798 35.7845 77.9728 36.8622 75.9431 37.8984C75.5596 38.0945 75.3898 38.2983 75.3961 38.7497C75.4213 40.807 75.4062 42.863 75.4062 45.0197ZM78.2658 49.8976C77.8848 48.9871 77.5565 48.1446 77.173 47.3297C77.0988 47.1713 76.8071 47.0304 76.6121 47.0279C75.1295 47.0028 73.6457 47.0053 72.1631 47.0254C71.982 47.0279 71.7028 47.1424 71.6387 47.2832C71.2526 48.1207 70.9156 48.9821 70.5371 49.8976C73.1301 49.8976 75.6426 49.8976 78.2658 49.8976ZM75.4288 35.9253C77.4647 34.859 79.3988 33.8454 81.441 32.7765C79.3774 31.6988 77.4358 30.6853 75.4288 29.6378C75.4288 31.763 75.4288 33.77 75.4288 35.9253Z" fill="#C5197D"/>
<path d="M39.4488 83.5169C39.9003 83.5169 40.3605 83.5169 40.8208 83.5169C43.278 83.5169 45.7364 83.5156 48.1936 83.5181C49.0147 83.5194 49.4838 83.8991 49.4675 84.5342C49.4511 85.1428 48.9934 85.5075 48.2125 85.5088C45.3126 85.5125 42.4115 85.5176 39.5117 85.5025C39.0967 85.5 38.8503 85.5955 38.6252 85.9866C37.4972 87.9446 35.7845 88.9971 33.5159 88.9996C31.2184 89.0021 29.4944 87.937 28.3601 85.9489C28.1664 85.6094 27.9627 85.5012 27.5867 85.5012C25.6828 85.5 25.0843 84.9932 24.7485 83.0981C24.497 81.6834 24.248 80.2662 24.0569 78.8414C23.8595 77.3638 24.1763 75.963 25.0013 74.7243C25.8727 73.4178 26.8121 72.1577 27.7414 70.8902C28.14 70.3469 28.7135 70.2551 29.1863 70.606C29.6553 70.9543 29.727 71.5076 29.3309 72.0735C28.6191 73.0883 27.9137 74.1094 27.1541 75.0865C26.1871 76.3327 25.8011 77.682 26.1205 79.2489C26.3682 80.4611 26.5518 81.6884 26.7241 82.9145C26.802 83.4691 27.041 83.6401 27.554 83.4628C28.1187 79.4199 30.2325 77.2444 33.5662 77.267C36.8244 77.2909 38.9546 79.5305 39.4488 83.5169ZM33.5008 87.0165C35.6449 87.0165 37.3978 85.2749 37.3966 83.1421C37.3953 81.0106 35.6424 79.2627 33.5021 79.2614C31.3681 79.2602 29.6063 81.0144 29.6075 83.1409C29.6075 85.2736 31.358 87.0153 33.5008 87.0165Z" fill="#C5197D"/>
</svg>
