<svg width="62" height="62" viewBox="0 0 62 62" fill="none" xmlns="http://www.w3.org/2000/svg">
<path d="M31.2947 0C31.5758 0.319838 31.9715 0.597678 32.1121 0.970823C32.3301 1.55073 31.9328 2.14356 31.3399 2.35194C30.7907 2.54417 30.1656 2.30994 29.8797 1.80273C29.5889 1.28743 29.7084 0.659061 30.1785 0.276224C30.3013 0.176073 30.437 0.0936901 30.5678 0.00161535C30.8101 0 31.0524 0 31.2947 0Z" fill="#C5197D"/>
<path d="M0 43.5798C0.670369 42.0323 1.34881 40.488 1.99334 38.9308C2.0531 38.7838 1.90772 38.5286 1.81242 38.3477C1.29712 37.3494 0.602524 36.4077 0.297224 35.3512C0.046845 34.4854 0.122766 33.4629 0.289147 32.5551C0.536295 31.2127 0.964362 29.8994 1.36658 28.591C1.7995 27.1792 2.63463 26.0355 3.83322 25.1649C3.88168 25.1293 3.92691 25.0712 3.98021 25.0615C4.97527 24.8741 4.90258 24.1084 4.99303 23.3492C5.99616 14.9898 10.0313 8.48641 17.0742 3.87944C19.6798 2.17525 22.5454 1.05258 25.5984 0.420984C26.5595 0.222297 27.2121 0.532443 27.3656 1.28196C27.5142 2.01533 27.0748 2.56132 26.146 2.77131C18.9367 4.40281 13.5495 8.46541 10.0248 14.9526C8.07027 18.55 7.20767 22.4365 7.26906 26.5347C7.2739 26.8787 7.36598 27.0855 7.68905 27.2406C8.37557 27.5733 9.03948 27.9497 9.77446 28.3406C9.22524 20.4884 11.8599 14.027 18.0111 9.15516C22.1609 5.86793 26.973 4.41573 32.2536 4.73234C45.1909 5.50932 53.7393 17.2012 52.2354 28.3519C53.0577 27.9142 53.8379 27.5168 54.5906 27.0742C54.7085 27.0047 54.7457 26.722 54.7489 26.5379C54.8329 20.9956 53.2257 15.9913 49.8544 11.5943C46.291 6.94537 41.6097 4.01674 35.8849 2.7697C35.3308 2.64855 34.8963 2.42724 34.7219 1.8538C34.4521 0.973432 35.2501 0.104376 36.1902 0.372524C38.0462 0.902357 39.9588 1.34981 41.6953 2.15748C49.9691 6.00847 54.9621 12.4957 56.7729 21.4286C56.9571 22.3348 57.012 23.2684 57.1025 24.1908C57.1364 24.5413 57.2882 24.6625 57.6048 24.8596C58.3269 25.3086 58.9488 25.9273 59.5723 26.5169C59.8146 26.7447 60.0343 27.058 60.1296 27.373C60.7499 29.431 61.4413 31.476 61.8904 33.5711C62.2086 35.0556 61.6044 36.4577 60.6659 37.6256C60.0263 38.4204 59.9762 39.1134 60.4446 40.0115C60.9922 41.0615 61.3896 42.1922 61.8419 43.2923C62.1795 44.1096 61.9663 44.7945 61.2991 45.0853C60.5997 45.389 59.9649 45.0627 59.5998 44.2001C59.0813 42.9757 58.5466 41.7561 58.0652 40.5171C57.9021 40.0971 57.7131 40.0454 57.3028 40.1375C55.7537 40.4896 54.1949 40.7998 52.5811 41.1374C53.0157 42.9676 53.4373 44.7445 53.8589 46.523C54.9379 51.0734 56.017 55.6238 57.0928 60.1742C57.2931 61.0207 56.9603 61.6652 56.2447 61.8429C55.5437 62.0157 54.9525 61.5828 54.7473 60.7202C53.4195 55.1521 52.0949 49.5824 50.7687 44.0143C50.7267 43.8383 50.6782 43.6654 50.6088 43.4021C45.2862 49.1124 38.7909 52.1686 31.0163 52.1637C23.2561 52.1605 16.777 49.101 11.414 43.3956C11.112 44.6524 10.8277 45.8332 10.545 47.0173C9.453 51.6065 8.36749 56.1956 7.27067 60.7832C7.03322 61.7783 6.08985 62.1902 5.34841 61.6313C4.87673 61.2743 4.77981 60.7994 4.9155 60.2276C6.09147 55.3072 7.25775 50.3836 8.42564 45.4617C8.76002 44.0515 9.0944 42.6413 9.44816 41.1455C8.60979 40.9662 7.79081 40.7901 6.97345 40.614C6.20454 40.4493 5.43241 40.3006 4.66835 40.1149C4.30974 40.0276 4.13205 40.1068 3.9899 40.4654C3.50692 41.6834 2.98031 42.8836 2.4844 44.0951C2.25987 44.6427 1.99495 45.1176 1.32135 45.1758C0.6526 45.2323 0.285916 44.8382 0.00161535 44.3116C0 44.0644 0 43.8221 0 43.5798ZM49.793 28.2033C49.793 26.714 49.7866 25.3054 49.7963 23.8968C49.7995 23.4558 49.6105 23.283 49.1776 23.1796C45.4106 22.2879 41.6501 21.3753 37.8912 20.4561C34.2615 19.5693 30.5753 19.1961 26.9084 19.9441C22.1302 20.9165 17.4005 22.1248 12.6546 23.2507C12.4963 23.2878 12.275 23.5317 12.2718 23.682C12.2427 25.1665 12.254 26.6526 12.254 28.2033C12.4963 28.2033 12.7144 28.2033 12.9308 28.2033C16 28.2033 19.0692 28.2001 22.1383 28.2049C26.0765 28.2114 28.8291 30.9736 28.8339 34.9232C28.8372 37.9923 28.8339 41.0615 28.8339 44.1306C28.8339 44.3455 28.8339 44.5587 28.8339 44.8091C30.333 44.8091 31.7496 44.8091 33.1954 44.8091C33.1954 42.4458 33.3214 40.1779 33.1727 37.9277C32.6688 30.3113 35.5651 27.6993 42.8874 28.1839C44.9373 28.3196 47.0049 28.2049 49.0645 28.2049C49.2842 28.2033 49.5023 28.2033 49.793 28.2033ZM12.9535 20.6548C13.1941 20.608 13.3702 20.5805 13.5431 20.5401C16.7738 19.7583 20.0109 19.0023 23.2335 18.1866C27.5384 17.0962 31.8805 16.7893 36.2435 17.66C39.303 18.2706 42.3269 19.0653 45.3654 19.7809C46.5882 20.0684 47.811 20.3624 49.0742 20.6629C47.433 14.3162 40.8844 7.16828 31.1003 7.11982C21.4308 7.07298 14.6673 14.0755 12.9535 20.6548ZM35.6184 44.2873C35.7331 44.2873 35.7961 44.3002 35.8526 44.2857C40.4208 43.0451 44.0295 40.4557 46.6932 36.5482C46.7853 36.4125 46.8386 36.2187 46.8321 36.0539C46.7594 34.2673 46.6722 32.4824 46.585 30.6263C46.5365 30.6263 46.3394 30.6263 46.1407 30.6263C44.0408 30.6263 41.9408 30.6231 39.8409 30.628C37.3161 30.6344 35.6232 32.3241 35.6184 34.844C35.6135 37.8114 35.6168 40.7804 35.6168 43.7478C35.6184 43.9239 35.6184 44.1016 35.6184 44.2873ZM26.3576 44.4602C26.3899 44.192 26.4077 44.1129 26.4077 44.0337C26.4077 40.8644 26.4303 37.6935 26.398 34.5242C26.3754 32.3531 24.6195 30.6538 22.4113 30.6312C20.1498 30.607 17.8883 30.6247 15.6269 30.628C15.5138 30.628 15.3991 30.6586 15.244 30.6813C15.244 32.4161 15.2376 34.1252 15.2521 35.8342C15.2537 36.1104 15.2747 36.44 15.4185 36.6564C17.1905 39.2846 19.4778 41.3603 22.3112 42.7818C23.597 43.4247 24.97 43.8899 26.3576 44.4602ZM12.2992 40.5446C21.8217 53.028 40.7439 52.574 49.7203 40.5268C49.1873 39.9663 48.6526 39.4025 48.0969 38.8161C43.7048 44.3132 38.0608 47.3048 31.0324 47.3096C23.9847 47.3145 18.3229 44.3164 13.9307 38.8145C13.3654 39.4154 12.8291 39.9824 12.2992 40.5446ZM57.6469 27.8253C57.2527 28.1969 57.0169 28.5215 56.697 28.7008C55.3967 29.4326 54.0786 30.132 52.7524 30.8153C51.9576 31.2256 51.1257 31.2305 50.2922 30.8993C49.6089 30.6263 49.0968 30.9575 49.0774 31.7038C49.0597 32.3903 49.1227 33.08 49.0645 33.7617C48.8884 35.8342 49.8237 37.3801 51.3244 38.6627C51.4601 38.779 51.7282 38.8226 51.9124 38.7871C53.258 38.5238 54.5858 38.1199 55.941 37.9794C57.4498 37.8227 58.3624 37.0683 59.0183 35.7728C59.4609 34.8989 59.6499 34.0379 59.3963 33.0946C59.0732 31.8879 58.7631 30.6764 58.3915 29.4843C58.2171 28.9205 57.9102 28.3988 57.6469 27.8253ZM4.35982 27.9319C4.15952 28.3342 3.84291 28.8075 3.67976 29.326C3.27754 30.6134 2.91247 31.917 2.60394 33.2303C2.49248 33.7052 2.42625 34.2964 2.6104 34.7164C3.02716 35.6662 3.60545 36.5482 4.14175 37.4415C4.20798 37.5513 4.41797 37.5949 4.56981 37.6272C6.42262 38.023 8.27542 38.4155 10.1314 38.7951C10.2914 38.8274 10.5304 38.8291 10.6306 38.7354C11.7306 37.7064 12.8032 36.6306 12.905 35.012C12.9777 33.8667 12.9632 32.7118 12.9357 31.5632C12.9212 30.9607 12.3687 30.6328 11.8276 30.8622C10.8438 31.2773 9.90853 31.1869 8.98455 30.6748C7.96204 30.1094 6.91045 29.5925 5.89601 29.0126C5.38879 28.7235 4.93327 28.3406 4.35982 27.9319Z" fill="#C5197D"/>
<path d="M34.9173 25.7529C34.9254 27.9352 33.1986 29.6717 31.0179 29.6733C28.8372 29.675 27.1071 27.9401 27.1136 25.7577C27.1201 23.6013 28.8291 21.8825 30.984 21.868C33.1679 21.8535 34.9093 23.5722 34.9173 25.7529ZM32.4895 25.7884C32.4976 24.942 31.8611 24.2959 31.0179 24.2942C30.1973 24.2926 29.5592 24.9081 29.5399 25.7206C29.5189 26.5687 30.144 27.2309 30.9824 27.2455C31.8272 27.2616 32.4814 26.6284 32.4895 25.7884Z" fill="#C5197D"/>
</svg>
