<svg width="76" height="76" viewBox="0 0 76 76" fill="none" xmlns="http://www.w3.org/2000/svg">
<circle cx="38" cy="38" r="33" fill="#D60000"/>
<circle cx="38" cy="38" r="36.5" stroke="#D60000" stroke-width="3"/>
<path d="M23.15 46.176C20.994 46.176 19.146 46.0587 17.606 45.824V43.206C19.41 43.382 20.95 43.47 22.226 43.47C22.974 43.47 23.5533 43.4407 23.964 43.382C24.3893 43.3087 24.7047 43.1913 24.91 43.03C25.1007 42.8833 25.218 42.7073 25.262 42.502C25.3207 42.2967 25.35 42.0033 25.35 41.622C25.35 41.1967 25.3207 40.8887 25.262 40.698C25.2033 40.4927 25.086 40.346 24.91 40.258C24.734 40.1553 24.4407 40.082 24.03 40.038L20.796 39.664C19.828 39.532 19.08 39.2827 18.552 38.916C18.024 38.5347 17.6573 38.0507 17.452 37.464C17.2613 36.8627 17.166 36.122 17.166 35.242C17.166 33.9513 17.4007 32.976 17.87 32.316C18.3393 31.6413 18.97 31.2013 19.762 30.996C20.554 30.7907 21.5733 30.688 22.82 30.688C24.7413 30.688 26.384 30.8347 27.748 31.128V33.68C26.3253 33.4893 24.8953 33.394 23.458 33.394C22.138 33.394 21.2653 33.504 20.84 33.724C20.6053 33.8413 20.4587 33.9953 20.4 34.186C20.3413 34.3767 20.312 34.6627 20.312 35.044C20.312 35.484 20.3413 35.7993 20.4 35.99C20.4587 36.1807 20.5833 36.32 20.774 36.408C20.9793 36.4813 21.3167 36.5473 21.786 36.606L25.262 37.024C25.9367 37.0973 26.494 37.2367 26.934 37.442C27.374 37.6327 27.7187 37.9553 27.968 38.41C28.32 39.0407 28.496 40.016 28.496 41.336C28.496 42.7293 28.276 43.778 27.836 44.482C27.396 45.186 26.802 45.648 26.054 45.868C25.3207 46.0733 24.3527 46.176 23.15 46.176ZM37.4735 46.176C35.4055 46.176 33.9315 45.956 33.0515 45.516C32.1715 45.076 31.6142 44.3573 31.3795 43.36C31.1595 42.3627 31.0495 40.72 31.0495 38.432C31.0495 36.144 31.1595 34.5013 31.3795 33.504C31.6142 32.5067 32.1715 31.788 33.0515 31.348C33.9315 30.908 35.4055 30.688 37.4735 30.688C39.5415 30.688 41.0155 30.908 41.8955 31.348C42.7902 31.788 43.3475 32.5067 43.5675 33.504C43.8022 34.5013 43.9195 36.144 43.9195 38.432C43.9195 40.72 43.8022 42.3627 43.5675 43.36C43.3475 44.3573 42.7902 45.076 41.8955 45.516C41.0155 45.956 39.5415 46.176 37.4735 46.176ZM37.4735 43.47C38.6322 43.47 39.4095 43.3893 39.8055 43.228C40.2162 43.0667 40.4729 42.678 40.5755 42.062C40.6929 41.4313 40.7515 40.2213 40.7515 38.432C40.7515 36.6427 40.6929 35.44 40.5755 34.824C40.4729 34.1933 40.2162 33.7973 39.8055 33.636C39.4095 33.4747 38.6322 33.394 37.4735 33.394C36.3149 33.394 35.5375 33.4747 35.1415 33.636C34.7455 33.7973 34.4889 34.1933 34.3715 34.824C34.2542 35.4547 34.1955 36.6573 34.1955 38.432C34.1955 40.2067 34.2542 41.4093 34.3715 42.04C34.4889 42.6707 34.7455 43.0667 35.1415 43.228C35.5375 43.3893 36.3149 43.47 37.4735 43.47ZM52.4332 46.176C50.2772 46.176 48.4292 46.0587 46.8892 45.824V43.206C48.6932 43.382 50.2332 43.47 51.5092 43.47C52.2572 43.47 52.8365 43.4407 53.2472 43.382C53.6725 43.3087 53.9879 43.1913 54.1932 43.03C54.3839 42.8833 54.5012 42.7073 54.5452 42.502C54.6039 42.2967 54.6332 42.0033 54.6332 41.622C54.6332 41.1967 54.6039 40.8887 54.5452 40.698C54.4865 40.4927 54.3692 40.346 54.1932 40.258C54.0172 40.1553 53.7239 40.082 53.3132 40.038L50.0792 39.664C49.1112 39.532 48.3632 39.2827 47.8352 38.916C47.3072 38.5347 46.9405 38.0507 46.7352 37.464C46.5445 36.8627 46.4492 36.122 46.4492 35.242C46.4492 33.9513 46.6839 32.976 47.1532 32.316C47.6225 31.6413 48.2532 31.2013 49.0452 30.996C49.8372 30.7907 50.8565 30.688 52.1032 30.688C54.0245 30.688 55.6672 30.8347 57.0312 31.128V33.68C55.6085 33.4893 54.1785 33.394 52.7412 33.394C51.4212 33.394 50.5485 33.504 50.1232 33.724C49.8885 33.8413 49.7419 33.9953 49.6832 34.186C49.6245 34.3767 49.5952 34.6627 49.5952 35.044C49.5952 35.484 49.6245 35.7993 49.6832 35.99C49.7419 36.1807 49.8665 36.32 50.0572 36.408C50.2625 36.4813 50.5999 36.5473 51.0692 36.606L54.5452 37.024C55.2199 37.0973 55.7772 37.2367 56.2172 37.442C56.6572 37.6327 57.0019 37.9553 57.2512 38.41C57.6032 39.0407 57.7792 40.016 57.7792 41.336C57.7792 42.7293 57.5592 43.778 57.1192 44.482C56.6792 45.186 56.0852 45.648 55.3372 45.868C54.6039 46.0733 53.6359 46.176 52.4332 46.176Z" fill="white"/>
</svg>
